# xmcd
#
# Track frame offsets:
#	150
#	14439
#	37444
#	53601
#	71423
#	84752
#	100729
#	118521
#	150343
#	167900
#	182162
#	200604
#	218573
#	233795
#	250475
#	264829
#	282408
#	296093
#
# Disc length: 4166 seconds
#
# Revision: 0
# Processed by: cddbd v1.4PL0 Copyright (c) Steve Scherf et al.
# Submitted via: EasyCDDAExtractor 4.6.9.1
#
DISCID=fc104412
DTITLE=Westlife - World of our own CD2
DYEAR=2001
DGENRE=Blues
TTITLE0=Uptown Girl
TTITLE1=Uptown Girl (Long)
TTITLE2=What Becomes Of The Broken Hearted
TTITLE3=I'll Be There
TTITLE4=My Girl
TTITLE5=I Lay My Love On You
TTITLE6=When You're Looking Like That
TTITLE7=Westlife Megamix
TTITLE8=What Makes A Man
TTITLE9=Somebody Needs You
TTITLE10=Close
TTITLE11=Soledad
TTITLE12=Against All Odds(Feat Mariah Carey)
TTITLE13=Puzzle Of My Heart
TTITLE14=Dreams Come True
TTITLE15=My Love
TTITLE16=Fragile Heart
TTITLE17=You Make Me Feel
EXTD=
EXTT0=
EXTT1=
EXTT2=
EXTT3=
EXTT4=
EXTT5=
EXTT6=
EXTT7=
EXTT8=
EXTT9=
EXTT10=
EXTT11=
EXTT12=
EXTT13=
EXTT14=
EXTT15=
EXTT16=
EXTT17=
PLAYORDER=
